<svg width="11" height="3" viewBox="0 0 11 3" fill="none" xmlns="http://www.w3.org/2000/svg">
<path d="M1.5 3C2.32843 3 3 2.32843 3 1.5C3 0.671573 2.32843 0 1.5 0C0.671573 0 0 0.671573 0 1.5C0 2.32843 0.671573 3 1.5 3Z" fill="#707070"/>
<path d="M5.5 3C6.32843 3 7 2.32843 7 1.5C7 0.671573 6.32843 0 5.5 0C4.67157 0 4 0.671573 4 1.5C4 2.32843 4.67157 3 5.5 3Z" fill="#707070"/>
<path d="M9.5 3C10.3284 3 11 2.32843 11 1.5C11 0.671573 10.3284 0 9.5 0C8.67157 0 8 0.671573 8 1.5C8 2.32843 8.67157 3 9.5 3Z" fill="#707070"/>
</svg>
